<svg width="90" height="90" viewBox="0 0 90 90" fill="none" xmlns="http://www.w3.org/2000/svg">
<g clip-path="url(#clip0_6_42)">
<path d="M87.3879 19.5785L73.1338 33.7887L64.5943 25.2791L78.8484 11.0742C70.8996 7.20703 59.7498 7.19121 53.1492 13.7725C46.9406 19.96 46.1654 29.7 49.1871 37.3623L17.5026 68.7955C17.3059 68.9915 17.1499 69.2243 17.0434 69.4807C16.9369 69.7371 16.8821 70.012 16.8821 70.2896C16.8821 70.5673 16.9369 70.8422 17.0434 71.0986C17.1499 71.355 17.3059 71.5878 17.5026 71.7838L26.6906 80.9437C26.8866 81.1404 27.1195 81.2964 27.3759 81.4029C27.6323 81.5094 27.9072 81.5642 28.1848 81.5642C28.4624 81.5642 28.7373 81.5094 28.9937 81.4029C29.2501 81.2964 29.483 81.1404 29.6789 80.9437L61.3195 49.2152C68.9063 52.0647 78.5461 51.2613 84.6527 45.1723C91.2445 38.5893 91.2305 27.5344 87.3879 19.5785V19.5785Z" fill="black"/>
<path d="M64.2393 54.2496L51.6129 66.9059L64.8896 80.9543C65.0655 81.1413 65.2772 81.2911 65.5122 81.3945C65.7472 81.498 66.0006 81.5531 66.2573 81.5565C66.514 81.56 66.7688 81.5117 67.0065 81.4146C67.2441 81.3175 67.4598 81.1735 67.6406 80.9912L78.1875 70.3635C78.3679 70.1807 78.51 69.9639 78.6057 69.7256C78.7014 69.4873 78.7486 69.2324 78.7447 68.9756C78.7408 68.7189 78.6857 68.4655 78.5828 68.2303C78.4799 67.995 78.3312 67.7826 78.1453 67.6055L64.2393 54.2496ZM20.918 37.2656C20.918 36.4096 20.2148 35.6256 19.6084 35.0191L19.5645 34.977L19.2937 34.7186C19.2769 34.6995 19.2642 34.6772 19.2564 34.653C19.2485 34.6288 19.2457 34.6032 19.248 34.5779C19.7565 34.2916 20.3408 34.1689 20.9215 34.2264C21.1447 34.2492 21.9603 34.3846 23.1012 35.0895C23.6953 35.4568 28.8369 40.4033 30.8232 42.2438C30.4749 42.608 30.2825 43.0939 30.2871 43.5979C30.2917 44.1019 30.4929 44.5842 30.8479 44.942L32.1539 46.3236L43.6957 34.868L42.2455 33.4898C41.889 33.1335 41.4061 32.9324 40.9021 32.9304C40.398 32.9284 39.9136 33.1257 39.5543 33.4793C35.5113 29.141 34.4566 27.2479 34.1051 26.0174C33.3281 23.298 34.8328 21.0955 36.566 19.6893C37.5926 18.8772 39.709 18.2689 41.6637 18.1072C42.3458 18.067 43.0302 18.1024 43.7045 18.2127C44.3145 18.3006 44.8119 18.4131 45.0035 18.4588C45.6669 18.6376 46.3138 18.8728 46.9371 19.1619L49.0465 15.8221C48.3952 14.6901 47.6038 13.6447 46.691 12.7107C46.3964 12.4024 46.0922 12.1034 45.7787 11.8143C44.4111 10.5574 40.8568 8.43926 36.1828 8.43926C33.4834 8.43629 30.8097 8.96304 28.3131 9.98965C21.7318 12.6861 17.4357 16.3617 15.4617 18.3129L15.4494 18.3252C14.1229 19.6582 12.8956 21.0865 11.7773 22.5984C10.8369 23.9221 10.9389 25.3828 11.0074 26.3496C11.0074 26.4059 11.0074 26.4674 11.0197 26.5254C10.4685 26.1261 9.80543 25.9109 9.1248 25.9102C8.7032 25.9073 8.28526 25.9886 7.89556 26.1495C7.50585 26.3104 7.15223 26.5476 6.85547 26.8471L0.351561 33.3316C0.127861 33.5555 0.00219727 33.8589 0.00219727 34.1754C0.00219727 34.4918 0.127861 34.7953 0.351561 35.0191L11.4258 46.0547C11.6473 46.276 11.9476 46.4004 12.2607 46.4004C12.5739 46.4004 12.8742 46.276 13.0957 46.0547L19.6102 39.5508C20.2148 38.9461 20.918 38.1199 20.918 37.2656Z" fill="black"/>
</g>
<defs>
<clipPath id="clip0_6_42">
<rect width="90" height="90" fill="white"/>
</clipPath>
</defs>
</svg>
