<svg xmlns:dc="http://purl.org/dc/elements/1.1/" xmlns:cc="http://creativecommons.org/ns#" xmlns:rdf="http://www.w3.org/1999/02/22-rdf-syntax-ns#" xmlns:svg="http://www.w3.org/2000/svg" xmlns="http://www.w3.org/2000/svg" xmlns:sodipodi="http://sodipodi.sourceforge.net/DTD/sodipodi-0.dtd" xmlns:inkscape="http://www.inkscape.org/namespaces/inkscape" viewBox="0 0 16.933333 16.933333" version="1.1" x="0px" y="0px"><g transform="translate(0,-280.06669)"><path style="color:#000000;font-style:normal;font-variant:normal;font-weight:normal;font-stretch:normal;font-size:medium;line-height:normal;font-family:sans-serif;font-variant-ligatures:normal;font-variant-position:normal;font-variant-caps:normal;font-variant-numeric:normal;font-variant-alternates:normal;font-feature-settings:normal;text-indent:0;text-align:start;text-decoration:none;text-decoration-line:none;text-decoration-style:solid;text-decoration-color:#000000;letter-spacing:normal;word-spacing:normal;text-transform:none;writing-mode:lr-tb;direction:ltr;text-orientation:mixed;dominant-baseline:auto;baseline-shift:baseline;text-anchor:start;white-space:normal;shape-padding:0;clip-rule:nonzero;display:inline;overflow:visible;visibility:visible;opacity:1;isolation:auto;mix-blend-mode:normal;color-interpolation:sRGB;color-interpolation-filters:linearRGB;solid-color:#000000;solid-opacity:1;vector-effect:none;fill:#000000;fill-opacity:1;fill-rule:evenodd;stroke:none;stroke-width:1.99999988;stroke-linecap:round;stroke-linejoin:round;stroke-miterlimit:4;stroke-dasharray:none;stroke-dashoffset:114.27863312;stroke-opacity:1;paint-order:stroke fill markers;color-rendering:auto;image-rendering:auto;shape-rendering:auto;text-rendering:auto;enable-background:accumulate" d="M 36 3 C 31.031305 3 27 7.0312818 27 12 L 27 19 L 23.998047 19 C 21.24537 19 19.001953 21.245341 19.001953 23.998047 L 19.001953 29.001953 L 28 29.001953 C 31.826086 29.001953 34.998047 32.173871 34.998047 36 L 34.998047 55.998047 C 34.998047 57.945899 34.173292 59.723528 32.861328 61.001953 L 55.998047 61.001953 C 58.750722 61.001953 60.996094 58.750752 60.996094 55.998047 L 60.996094 23.998047 C 60.996094 21.245341 58.750722 19 55.998047 19 L 53 19 L 53 12 C 53 7.0312818 48.968699 3 44 3 C 42.561253 3 41.206436 3.346365 40 3.9472656 C 38.793564 3.346365 37.438747 3 36 3 z M 36 5 C 36.702764 5 37.377917 5.1044505 38.015625 5.2929688 C 36.169363 6.9414372 35 9.3314987 35 12 L 35 19 L 29 19 L 29 12 C 29 8.1046676 32.104705 5 36 5 z M 44 5 C 47.895302 5 51 8.1046676 51 12 L 51 19 L 45 19 L 45 12 C 45 9.3314987 43.830637 6.9414372 41.984375 5.2929688 C 42.622084 5.1044505 43.297236 5 44 5 z M 40 6.2421875 C 41.817463 7.5004778 43 9.5987837 43 12 L 43 19 L 37 19 L 37 12 C 37 9.5987837 38.182536 7.5004778 40 6.2421875 z M 8.0019531 31.001953 C 5.2492566 31.001953 2.9960937 33.247257 2.9960938 36 L 2.9960938 55.998047 C 2.9960938 58.750752 5.2492453 61.001953 8.0019531 61.001953 L 28 61.001953 C 30.752708 61.001953 32.996094 58.750752 32.996094 55.998047 L 32.996094 36 C 32.996094 33.247257 30.752696 31.001953 28 31.001953 L 8.0019531 31.001953 z M 11.988281 38.982422 A 1.0001 1.0001 0 0 1 13 40.001953 L 13 46.001953 C 13 48.789241 15.2088 51 17.996094 51 C 20.783387 51 23.001953 48.789241 23.001953 46.001953 L 23.001953 40.001953 A 1.0002461 1.0002461 0 0 1 25.001953 40.001953 L 25.001953 46.001953 C 25.001953 49.862627 21.8568 53 17.996094 53 C 14.135387 53 10.998047 49.862627 10.998047 46.001953 L 10.998047 40.001953 A 1.0001 1.0001 0 0 1 11.988281 38.982422 z " transform="matrix(0.26458333,0,0,0.26458333,0,280.06669)"></path></g></svg>