<svg width="90" height="90" viewBox="0 0 90 90" fill="none" xmlns="http://www.w3.org/2000/svg">
<path d="M11.1234 35.5078C10.6491 35.5121 10.1822 35.3908 9.76992 35.1562C9.46755 34.9863 9.20211 34.7577 8.98913 34.4839C8.77615 34.2102 8.61992 33.8967 8.52957 33.5618C8.43921 33.2269 8.41656 32.8773 8.46293 32.5336C8.50929 32.1898 8.62375 31.8587 8.79961 31.5598C12.1887 25.9031 22.5 12.7002 45 12.7002C54.7506 12.7002 63.3023 15.2613 70.4057 20.3098C76.2521 24.4529 79.5287 29.1428 81.0896 31.4016C81.2876 31.6863 81.4266 32.0077 81.4985 32.347C81.5704 32.6862 81.5736 33.0364 81.5081 33.377C81.4426 33.7175 81.3096 34.0415 81.117 34.3298C80.9244 34.6182 80.676 34.8651 80.3865 35.0561C79.7949 35.4472 79.0742 35.5925 78.3772 35.4612C77.6802 35.33 77.0618 34.9324 76.6529 34.3529C73.8281 30.2906 65.2148 17.9297 45 17.9297C25.2686 17.9297 16.3477 29.3045 13.442 34.1824C13.2085 34.5898 12.8705 34.9274 12.4629 35.1604C12.0553 35.3934 11.5929 35.5133 11.1234 35.5078Z" fill="black"/>
<path d="M56.3361 87.1875C56.1118 87.1902 55.888 87.1648 55.6699 87.1119C39.3486 83.0689 33.2543 66.7529 33.0064 66.0744L32.9678 65.925C32.8342 65.4539 29.5594 54.2654 34.5867 47.7123C36.8912 44.724 40.3963 43.1912 45.0246 43.1912C49.3277 43.1912 52.432 44.5289 54.566 47.2975C56.3238 49.558 57.0269 52.3459 57.7072 55.0318C59.1363 60.6252 60.1681 63.5625 66.1078 63.8648C68.7164 63.9967 70.4303 62.4709 71.4023 61.1719C74.0303 57.6299 74.4873 51.8555 72.5062 46.7578C69.9609 40.1783 60.9275 27.7734 45 27.7734C38.2008 27.7734 31.9535 29.9584 26.9437 34.0646C22.797 37.466 19.5117 42.2684 17.9297 47.2043C14.9959 56.3941 18.8437 70.8398 18.8806 70.9717C18.9705 71.3079 18.9921 71.6587 18.9442 72.0034C18.8963 72.3481 18.7799 72.6797 18.6018 72.9787C18.4238 73.2776 18.1876 73.5379 17.9073 73.7442C17.6271 73.9505 17.3083 74.0986 16.9699 74.1797C16.2862 74.3615 15.5585 74.2683 14.9428 73.92C14.327 73.5717 13.8722 72.996 13.6758 72.3164C13.5 71.6572 9.39021 56.25 12.7793 45.6293C16.4707 34.1209 27.8631 22.5193 45.0053 22.5193C52.9277 22.5193 60.4125 25.2123 66.6597 30.2977C71.4972 34.2527 75.4488 39.5648 77.516 44.8752C80.1439 51.6551 79.439 59.2646 75.7248 64.2357C73.2498 67.551 69.7254 69.2842 65.8213 69.0961C55.6506 68.5863 53.8224 61.4865 52.49 56.308C51.1189 50.9959 50.2418 48.4348 45.0053 48.4348C42.1295 48.4348 40.1097 49.2258 38.8529 50.8641C37.139 53.1053 37.0054 56.6086 37.1953 59.1504C37.3199 60.9213 37.6202 62.6754 38.0918 64.3869C38.5101 65.4416 43.9576 78.801 57.0041 82.0336C57.3413 82.1135 57.6593 82.2596 57.9395 82.4634C58.2198 82.6672 58.4568 82.9247 58.6367 83.2209C58.8166 83.5171 58.9358 83.8461 58.9875 84.1887C59.0392 84.5314 59.0222 84.8809 58.9377 85.217C58.7785 85.7843 58.438 86.284 57.9683 86.6398C57.4986 86.9956 56.9254 87.1879 56.3361 87.1875V87.1875Z" fill="black"/>
<path d="M35.3865 85.9817C35.0207 85.9824 34.6585 85.9095 34.3214 85.7672C33.9844 85.625 33.6795 85.4163 33.4248 85.1537C26.8928 78.2982 23.1978 70.6324 21.8074 61.0471V60.9961C21.0269 54.6504 22.1695 45.6662 27.7682 39.4893C31.9008 34.9313 37.7103 32.6145 45.0053 32.6145C53.6326 32.6145 60.4125 36.6258 64.64 44.1967C67.7074 49.6969 68.3156 55.1777 68.3314 55.4027C68.3636 55.7497 68.327 56.0995 68.2238 56.4323C68.1205 56.765 67.9527 57.0741 67.7298 57.3419C67.5069 57.6097 67.2334 57.8309 66.9249 57.9928C66.6164 58.1547 66.279 58.2542 65.932 58.2855C65.2319 58.3615 64.53 58.1591 63.9778 57.7221C63.4256 57.285 63.0675 56.6483 62.9807 55.9494C62.5176 52.6608 61.4534 49.4855 59.8412 46.582C56.5646 40.8006 51.5795 37.8615 44.9859 37.8615C39.2906 37.8615 34.8346 39.5754 31.7689 42.9592C27.3498 47.8371 26.4955 55.3518 27.1019 60.3229C28.3201 68.799 31.5773 75.542 37.3289 81.5678C37.569 81.8175 37.7563 82.1129 37.8799 82.4365C38.0035 82.7601 38.0608 83.1053 38.0483 83.4515C38.0359 83.7976 37.9539 84.1378 37.8074 84.4516C37.6609 84.7655 37.4527 85.0467 37.1953 85.2785C36.6996 85.7278 36.0555 85.9782 35.3865 85.9817V85.9817Z" fill="black"/>
<path d="M65.4785 78.4301C59.7656 78.4301 54.9088 76.848 51.0223 73.7033C43.2141 67.4121 42.3387 57.1658 42.3 56.7334C42.245 56.0236 42.4742 55.321 42.9372 54.7802C43.4002 54.2394 44.0591 53.9047 44.7689 53.8497C45.4787 53.7947 46.1812 54.0239 46.722 54.4869C47.2628 54.9499 47.5975 55.6088 47.6526 56.3186C47.6719 56.4697 48.4524 64.851 54.4711 69.6779C58.0324 72.5221 62.7926 73.6506 68.6584 72.9914C69.3595 72.9064 70.0657 73.1023 70.6227 73.5365C71.1797 73.9706 71.5422 74.6076 71.6309 75.3082C71.6693 75.6543 71.6383 76.0046 71.5399 76.3386C71.4415 76.6726 71.2776 76.9837 71.0577 77.2537C70.8377 77.5236 70.5663 77.7471 70.2591 77.9111C69.9519 78.075 69.6151 78.1762 69.2684 78.2086C68.0104 78.3554 66.745 78.4293 65.4785 78.4301V78.4301ZM69.9926 8.57637C67.7637 7.12617 59.8606 2.8125 45 2.8125C29.4012 2.8125 21.4787 7.57793 19.7262 8.78906C19.6105 8.86011 19.5021 8.94255 19.4028 9.03516C19.3923 9.0453 19.3786 9.05151 19.3641 9.05273C19.0842 9.29708 18.8597 9.59827 18.7054 9.93624C18.5511 10.2742 18.4706 10.6412 18.4694 11.0127C18.4742 11.361 18.5477 11.7048 18.6856 12.0246C18.8235 12.3444 19.0232 12.6339 19.2732 12.8764C19.5232 13.1189 19.8186 13.3096 20.1425 13.4378C20.4664 13.5659 20.8123 13.6289 21.1606 13.623C21.7187 13.6227 22.2634 13.4515 22.7215 13.1326C22.7971 13.0764 29.6156 8.0666 45.0053 8.0666C60.3949 8.0666 67.2504 13.0588 67.3242 13.0957C67.7922 13.4428 68.3606 13.6279 68.9432 13.623C69.2917 13.6284 69.6379 13.5649 69.9618 13.4361C70.2857 13.3073 70.581 13.1158 70.8307 12.8726C71.0804 12.6294 71.2797 12.3393 71.417 12.0189C71.5543 11.6986 71.627 11.3542 71.6309 11.0057C71.631 10.4836 71.4751 9.97335 71.1832 9.54049C70.8913 9.10763 70.4767 8.77189 69.9926 8.57637V8.57637Z" fill="black"/>
</svg>
