<svg width="90" height="90" viewBox="0 0 90 90" fill="none" xmlns="http://www.w3.org/2000/svg">
<path d="M84.9252 43.1332C81.1969 26.2775 75.5859 17.2811 67.2627 14.8236C65.5131 14.3104 63.6983 14.054 61.875 14.0625C59.465 14.0625 57.3662 14.6496 55.1461 15.2719C52.4707 16.0225 49.4314 16.875 45 16.875C40.5685 16.875 37.5275 16.0242 34.8469 15.2736C32.625 14.6496 30.5279 14.0625 28.125 14.0625C26.2396 14.056 24.3625 14.3115 22.5475 14.8219C14.2682 17.2687 8.66074 26.2617 4.87792 43.1227C0.810346 61.2668 2.81249 72.7225 10.4924 75.3803C11.5451 75.7513 12.6527 75.9427 13.7689 75.9463C19.0301 75.9463 23.2488 71.5641 26.1316 67.9764C29.3889 63.9158 33.2016 61.8557 45 61.8557C55.5381 61.8557 59.8992 63.2848 63.6662 67.9764C66.034 70.926 68.2717 72.9896 70.5041 74.2887C73.473 76.0148 76.4402 76.398 79.3213 75.4084C83.86 73.8598 86.4615 69.7658 87.0557 63.2373C87.5074 58.231 86.8113 51.6551 84.9252 43.1332ZM36.5625 42.1875H30.9375V47.8125C30.9375 48.5584 30.6412 49.2738 30.1137 49.8012C29.5863 50.3287 28.8709 50.625 28.125 50.625C27.3791 50.625 26.6637 50.3287 26.1363 49.8012C25.6088 49.2738 25.3125 48.5584 25.3125 47.8125V42.1875H19.6875C18.9416 42.1875 18.2262 41.8912 17.6988 41.3637C17.1713 40.8363 16.875 40.1209 16.875 39.375C16.875 38.6291 17.1713 37.9137 17.6988 37.3863C18.2262 36.8588 18.9416 36.5625 19.6875 36.5625H25.3125V30.9375C25.3125 30.1916 25.6088 29.4762 26.1363 28.9488C26.6637 28.4213 27.3791 28.125 28.125 28.125C28.8709 28.125 29.5863 28.4213 30.1137 28.9488C30.6412 29.4762 30.9375 30.1916 30.9375 30.9375V36.5625H36.5625C37.3084 36.5625 38.0238 36.8588 38.5512 37.3863C39.0787 37.9137 39.375 38.6291 39.375 39.375C39.375 40.1209 39.0787 40.8363 38.5512 41.3637C38.0238 41.8912 37.3084 42.1875 36.5625 42.1875ZM51.3281 42.8906C50.6328 42.8906 49.9531 42.6844 49.3749 42.2981C48.7968 41.9118 48.3462 41.3628 48.0801 40.7204C47.814 40.078 47.7444 39.3711 47.8801 38.6891C48.0157 38.0072 48.3505 37.3807 48.8422 36.8891C49.3339 36.3974 49.9603 36.0626 50.6423 35.9269C51.3242 35.7913 52.0311 35.8609 52.6735 36.127C53.3159 36.3931 53.865 36.8437 54.2513 37.4218C54.6376 38 54.8437 38.6797 54.8437 39.375C54.8437 40.3074 54.4734 41.2016 53.814 41.8609C53.1547 42.5202 52.2605 42.8906 51.3281 42.8906V42.8906ZM59.0625 50.625C58.3668 50.625 57.6867 50.4186 57.1084 50.0319C56.5301 49.6452 56.0795 49.0956 55.8136 48.4527C55.5478 47.8098 55.4787 47.1025 55.6151 46.4203C55.7514 45.7381 56.0872 45.1117 56.5797 44.6203C57.0722 44.129 57.6995 43.7949 58.382 43.6602C59.0646 43.5256 59.7717 43.5964 60.414 43.8639C61.0562 44.1313 61.6047 44.5833 61.9899 45.1626C62.3752 45.7419 62.5799 46.4225 62.5781 47.1182C62.5758 48.049 62.2044 48.941 61.5453 49.5984C60.8863 50.2558 59.9934 50.625 59.0625 50.625V50.625ZM59.0625 35.1562C58.3672 35.1562 57.6875 34.9501 57.1093 34.5638C56.5312 34.1775 56.0806 33.6284 55.8145 32.986C55.5484 32.3436 55.4788 31.6367 55.6144 30.9548C55.7501 30.2728 56.0849 29.6464 56.5766 29.1547C57.0682 28.663 57.6947 28.3282 58.3766 28.1925C59.0586 28.0569 59.7655 28.1265 60.4079 28.3926C61.0503 28.6587 61.5993 29.1093 61.9856 29.6874C62.3719 30.2656 62.5781 30.9453 62.5781 31.6406C62.5781 32.573 62.2077 33.4672 61.5484 34.1265C60.8891 34.7858 59.9949 35.1562 59.0625 35.1562ZM66.7969 42.8906C66.1015 42.8906 65.4218 42.6844 64.8437 42.2981C64.2656 41.9118 63.8149 41.3628 63.5489 40.7204C63.2828 40.078 63.2131 39.3711 63.3488 38.6891C63.4845 38.0072 63.8193 37.3807 64.3109 36.8891C64.8026 36.3974 65.429 36.0626 66.111 35.9269C66.793 35.7913 67.4998 35.8609 68.1422 36.127C68.7846 36.3931 69.3337 36.8437 69.72 37.4218C70.1063 38 70.3125 38.6797 70.3125 39.375C70.3125 40.3074 69.9421 41.2016 69.2828 41.8609C68.6235 42.5202 67.7293 42.8906 66.7969 42.8906V42.8906Z" fill="black"/>
</svg>
