<svg width="90" height="90" viewBox="0 0 90 90" fill="none" xmlns="http://www.w3.org/2000/svg">
<g clip-path="url(#clip0_6_55)">
<path d="M58.7716 0H30.6466C27.6629 0 24.8014 1.18526 22.6916 3.29505C20.5818 5.40483 19.3966 8.26631 19.3966 11.25V78.75C19.3966 81.7337 20.5818 84.5952 22.6916 86.7049C24.8014 88.8147 27.6629 90 30.6466 90H58.7716C61.7552 90 64.6167 88.8147 66.7265 86.7049C68.8363 84.5952 70.0216 81.7337 70.0216 78.75V11.25C70.0216 8.26631 68.8363 5.40483 66.7265 3.29505C64.6167 1.18526 61.7552 0 58.7716 0V0ZM64.3966 78.75C64.3966 80.2418 63.8039 81.6726 62.749 82.7275C61.6941 83.7824 60.2634 84.375 58.7716 84.375H30.6466C29.1547 84.375 27.724 83.7824 26.6691 82.7275C25.6142 81.6726 25.0216 80.2418 25.0216 78.75V11.25C25.0216 9.75816 25.6142 8.32742 26.6691 7.27252C27.724 6.21763 29.1547 5.625 30.6466 5.625H32.6417C32.9137 5.62401 33.18 5.7025 33.408 5.85084C33.6359 5.99918 33.8156 6.21089 33.9249 6.45996C34.3616 7.46532 35.0826 8.32117 35.9991 8.92232C36.9157 9.52348 37.9879 9.84374 39.0841 9.84375H50.3341C51.4302 9.84374 52.5024 9.52348 53.419 8.92232C54.3355 8.32117 55.0565 7.46532 55.4932 6.45996C55.6025 6.21089 55.7822 5.99918 56.0101 5.85084C56.2381 5.7025 56.5045 5.62401 56.7764 5.625H58.7716C60.2634 5.625 61.6941 6.21763 62.749 7.27252C63.8039 8.32742 64.3966 9.75816 64.3966 11.25V78.75Z" fill="black"/>
<path d="M56.4226 25.6076C54.8291 25.9837 45.2983 28.3383 42.7117 28.9641C42.6731 28.973 42.6386 28.9947 42.6139 29.0257C42.5892 29.0566 42.5756 29.095 42.5754 29.1346V53.8424C42.5754 53.8785 42.5643 53.9138 42.5435 53.9434C42.5228 53.9729 42.4934 53.9954 42.4594 54.0077L38.884 55.2996C36.2631 56.2366 34.1379 56.9643 34.1379 60.4905C34.1379 63.3443 36.206 64.6371 37.4734 64.885C37.909 64.9571 38.3503 64.9888 38.7917 64.9799C39.5731 64.9799 41.5163 64.6644 42.9683 63.7284C45.3879 62.1657 45.3879 62.1657 45.3879 59.347V37.6582C45.3878 37.6193 45.4006 37.5815 45.4243 37.5506C45.448 37.5198 45.4813 37.4977 45.5189 37.4877L56.5052 34.5873C56.5428 34.5774 56.5761 34.5553 56.5998 34.5244C56.6235 34.4936 56.6363 34.4557 56.6362 34.4168V25.7789C56.6361 25.7527 56.6302 25.7267 56.6188 25.7031C56.6074 25.6794 56.5909 25.6586 56.5704 25.6421C56.5499 25.6257 56.526 25.6141 56.5004 25.6081C56.4748 25.6021 56.4483 25.6019 56.4226 25.6076V25.6076Z" fill="black"/>
</g>
<defs>
<clipPath id="clip0_6_55">
<rect width="90" height="90" fill="white"/>
</clipPath>
</defs>
</svg>
