<?xml version="1.0" encoding="iso-8859-1"?>
<!-- Generator: Adobe Illustrator 19.0.0, SVG Export Plug-In . SVG Version: 6.00 Build 0)  -->
<svg version="1.1" id="Layer_1" xmlns="http://www.w3.org/2000/svg" xmlns:xlink="http://www.w3.org/1999/xlink" x="0px" y="0px"
	 viewBox="0 0 512 512" style="enable-background:new 0 0 512 512;" xml:space="preserve">
<g transform="translate(1 1)">
	<g>
		<g>
			<path d="M370.2-1H148.333C129.56-1,114.2,14.36,114.2,33.133V50.2v25.6c-5.12,0-8.533,3.413-8.533,8.533v8.533
				c0,5.12,3.413,8.533,8.533,8.533v8.533c-5.12,0-8.533,3.413-8.533,8.533V127c0,5.12,3.413,8.533,8.533,8.533v8.533
				c-5.12,0-8.533,3.413-8.533,8.533v8.533c0,5.12,3.413,8.533,8.533,8.533v273.067v34.133c0,18.773,15.36,34.133,34.133,34.133
				H370.2c18.773,0,34.133-15.36,34.133-34.133v-34.133V50.2V33.133C404.333,14.36,388.973-1,370.2-1z M259.267,485.4
				c-9.387,0-17.067-7.68-17.067-17.067s7.68-17.067,17.067-17.067c9.387,0,17.067,7.68,17.067,17.067S268.653,485.4,259.267,485.4z
				 M131.267,67.267h256v358.4h-256V67.267z M131.267,476.867v-34.133h105.497c-7.117,6.267-11.63,15.43-11.63,25.6
				s4.514,19.333,11.63,25.6h-88.43C138.947,493.933,131.267,486.253,131.267,476.867z M387.267,476.867
				c0,9.387-7.68,17.067-17.067,17.067h-88.43c7.117-6.267,11.63-15.43,11.63-25.6s-4.514-19.333-11.63-25.6h105.497V476.867z
				 M131.267,50.2V33.133c0-9.387,7.68-17.067,17.067-17.067H370.2c9.387,0,17.067,7.68,17.067,17.067V50.2H131.267z"/>
			<path d="M293.4,24.6h-42.667c-5.12,0-8.533,3.413-8.533,8.533c0,5.12,3.413,8.533,8.533,8.533H293.4
				c5.12,0,8.533-3.413,8.533-8.533C301.933,28.013,298.52,24.6,293.4,24.6z"/>
			<path d="M225.133,24.6H216.6c-5.12,0-8.533,3.413-8.533,8.533c0,5.12,3.413,8.533,8.533,8.533h8.533
				c5.12,0,8.533-3.413,8.533-8.533C233.667,28.013,230.253,24.6,225.133,24.6z"/>
			<path d="M191.853,266.947c0.853,3.413,4.267,5.12,7.68,5.12H319c3.413,0,6.827-1.707,7.68-5.973l34.133-85.333
				c0.853-2.56,0.853-5.12-0.853-7.68c-1.707-1.707-4.267-3.413-6.827-3.413H315.16l-23.467-46.933
				c-1.707-3.413-6.827-5.12-11.093-3.413c-3.413,1.707-5.12,6.827-3.413,11.093l19.627,39.253h-74.667l19.2-38.4
				c2.56-4.267,0.853-9.387-3.413-11.093c-4.267-2.56-9.387-0.853-11.093,3.413l-23.04,46.08h-38.4c-2.56,0-5.12,2.56-6.827,4.267
				s-1.707,5.12-0.853,7.68L191.853,266.947z M340.333,186.733L313.027,255h-107.52L178.2,186.733H340.333z"/>
			<path d="M165.4,323.267h76.8c5.12,0,8.533-3.413,8.533-8.533s-3.413-8.533-8.533-8.533h-76.8c-5.12,0-8.533,3.413-8.533,8.533
				S160.28,323.267,165.4,323.267z"/>
			<path d="M353.133,306.2h-76.8c-5.12,0-8.533,3.413-8.533,8.533s3.413,8.533,8.533,8.533h76.8c5.12,0,8.533-3.413,8.533-8.533
				S358.253,306.2,353.133,306.2z"/>
			<path d="M199.533,357.4H165.4c-5.12,0-8.533,3.413-8.533,8.533s3.413,8.533,8.533,8.533h34.133c5.12,0,8.533-3.413,8.533-8.533
				S204.653,357.4,199.533,357.4z"/>
			<path d="M353.133,357.4H233.667c-5.12,0-8.533,3.413-8.533,8.533s3.413,8.533,8.533,8.533h119.467
				c5.12,0,8.533-3.413,8.533-8.533S358.253,357.4,353.133,357.4z"/>
		</g>
	</g>
</g>
<g>
</g>
<g>
</g>
<g>
</g>
<g>
</g>
<g>
</g>
<g>
</g>
<g>
</g>
<g>
</g>
<g>
</g>
<g>
</g>
<g>
</g>
<g>
</g>
<g>
</g>
<g>
</g>
<g>
</g>
</svg>
